<svg width="24" height="24" viewBox="0 0 24 24" fill="none" xmlns="http://www.w3.org/2000/svg">
<path d="M12 24C18.6274 24 24 18.6274 24 12C24 5.37258 18.6274 0 12 0C5.37258 0 0 5.37258 0 12C0 18.6274 5.37258 24 12 24Z" fill="white"/>
<path d="M12 3.3772C8.43431 3.3772 5.52002 6.27434 5.52002 9.8572C5.52002 10.5772 5.64002 11.2801 5.86288 11.9658C6.01716 12.4286 6.53145 12.6858 7.01145 12.5315C7.47431 12.3772 7.73145 11.8629 7.57716 11.3829C7.38859 10.8515 7.30288 10.2858 7.32002 9.72006C7.38859 7.30291 9.34288 5.31434 11.76 5.19434C14.4515 5.0572 16.68 7.20006 16.68 9.8572C16.68 12.3429 14.7257 14.3829 12.2743 14.5201C12.2743 14.5201 11.3657 14.5715 10.92 14.6401C10.6972 14.6743 10.5257 14.7086 10.4057 14.7258C10.3543 14.7429 10.3029 14.6915 10.32 14.6401L10.4743 13.8858L11.3143 10.0115C11.4172 9.53149 11.1086 9.05148 10.6286 8.94863C10.1486 8.84577 9.66859 9.15434 9.56574 9.63434C9.56574 9.63434 7.54288 19.0629 7.52573 19.1658C7.42288 19.6458 7.73145 20.1258 8.21145 20.2286C8.69145 20.3315 9.17145 20.0229 9.27431 19.5429C9.29145 19.4401 9.56574 18.1886 9.56574 18.1886C9.77145 17.2286 10.56 16.5258 11.4857 16.4058C11.6914 16.3715 12.4972 16.3201 12.4972 16.3201C15.84 16.0629 18.48 13.2686 18.48 9.8572C18.48 6.27434 15.5657 3.3772 12 3.3772Z" fill="black"/>
<path d="M12.463 18.2914C11.8801 18.1714 11.2973 18.5314 11.1773 19.1314C11.0573 19.7143 11.4173 20.2971 12.0173 20.4171C12.6001 20.5371 13.183 20.1771 13.303 19.5771C13.423 18.9771 13.063 18.4114 12.463 18.2914Z" fill="#E6007A"/>
</svg>
