<svg width="24" height="24" viewBox="0 0 24 24" fill="none" xmlns="http://www.w3.org/2000/svg">
<g clip-path="url(#clip0_448_53)">
<path d="M12 17.3684H4.73682L15.6316 6.47363H19.2631L12 17.3684Z" fill="url(#paint0_linear_448_53)"/>
<path d="M24 0H0V24H24V0Z" fill="black" stroke="black" stroke-miterlimit="10"/>
<path d="M20.3507 6.92177C20.067 6.69813 19.7288 6.39268 19.1125 6.31631C18.5343 6.23995 17.9452 6.62722 17.547 6.88359C17.1488 7.13995 16.3961 7.89268 16.0852 8.12177C15.7743 8.35086 14.9779 8.56359 13.6961 9.33268C12.4143 10.1018 7.3852 13.3309 7.3852 13.3309L8.69429 13.3472L2.85793 16.3527H3.44156L2.60156 16.9909C2.60156 16.9909 3.34338 17.1872 3.9652 16.7945V16.9745C3.9652 16.9745 10.9143 14.2363 12.2561 14.9454L11.4379 15.1854C11.5088 15.1854 12.8288 15.2727 12.8288 15.2727C12.8609 15.546 12.9528 15.8089 13.0979 16.0428C13.2431 16.2766 13.438 16.4755 13.6688 16.6254C14.4652 17.149 14.4816 17.4381 14.4816 17.4381C14.4816 17.4381 14.067 17.6072 14.067 17.82C14.067 17.82 14.6779 17.6345 15.2452 17.6509C15.6052 17.6645 15.9623 17.7213 16.3088 17.82C16.3088 17.82 16.2652 17.5909 15.7143 17.4381C15.1634 17.2854 14.6179 16.6854 14.3507 16.3581C14.1869 16.1498 14.0802 15.9025 14.041 15.6405C14.0018 15.3784 14.0315 15.1107 14.127 14.8636C14.3179 14.3672 14.9834 14.0945 16.3579 13.3854C17.9779 12.5454 18.3488 11.9236 18.5779 11.4381C18.807 10.9527 19.1452 9.98723 19.3361 9.5345C19.5761 8.95086 19.8707 8.63995 20.1161 8.4545C20.3616 8.26904 21.4525 7.85995 21.4525 7.85995C21.4525 7.85995 20.6179 7.1345 20.3507 6.92177Z" fill="white"/>
</g>
<defs>
<linearGradient id="paint0_linear_448_53" x1="12" y1="6.47363" x2="12" y2="17.3684" gradientUnits="userSpaceOnUse">
<stop stop-color="#7AEDCF"/>
<stop offset="0.201333" stop-color="#68CEFA"/>
<stop offset="0.403244" stop-color="#689CF8"/>
<stop offset="0.602076" stop-color="#AC57C0"/>
<stop offset="0.801867" stop-color="#E65659"/>
<stop offset="1" stop-color="#F2C241"/>
</linearGradient>
<clipPath id="clip0_448_53">
<rect width="24" height="24" fill="white"/>
</clipPath>
</defs>
</svg>
